<?xml version="1.0" encoding="UTF-8"?>
<svg xmlns="http://www.w3.org/2000/svg" xmlns:xlink="http://www.w3.org/1999/xlink" width="50px" height="2180px" viewBox="0 0 50 123" version="1.1">
<defs>
<clipPath id="clip1">
  <path d="M 2.710938 80.152344 L 47.308594 80.152344 L 47.308594 120.269531 L 2.710938 120.269531 Z M 2.710938 80.152344 "/>
</clipPath>
<clipPath id="clip2">
  <path d="M 2.710938 62.082031 L 47.308594 62.082031 L 47.308594 102.195312 L 2.710938 102.195312 Z M 2.710938 62.082031 "/>
</clipPath>
<clipPath id="clip3">
  <path d="M 2.710938 42.550781 L 47.308594 42.550781 L 47.308594 82.664062 L 2.710938 82.664062 Z M 2.710938 42.550781 "/>
</clipPath>
<clipPath id="clip4">
  <path d="M 2.710938 22.410156 L 47.308594 22.410156 L 47.308594 62.523438 L 2.710938 62.523438 Z M 2.710938 22.410156 "/>
</clipPath>
<clipPath id="clip5">
  <path d="M 2.710938 2.707031 L 47.308594 2.707031 L 47.308594 42.824219 L 2.710938 42.824219 Z M 2.710938 2.707031 "/>
</clipPath>
</defs>
<g id="surface1">
<path style=" stroke:none;fill-rule:nonzero;fill:rgb(94.901961%,92.941176%,83.529412%);fill-opacity:1;" d="M 4.671875 82.234375 L 4.671875 102.363281 C 6.683594 106.308594 9.492188 109.855469 12.929688 112.933594 C 16.085938 115.761719 20.097656 118.371094 25.109375 118.3125 C 30.179688 118.25 34.039062 115.667969 37.101562 112.964844 C 40.488281 109.972656 43.308594 106.503906 45.347656 102.523438 L 45.347656 82.113281 Z M 4.671875 82.234375 "/>
<g clip-path="url(#clip1)" clip-rule="nonzero">
<path style="fill:none;stroke-width:50;stroke-linecap:butt;stroke-linejoin:miter;stroke:rgb(83.137255%,82.745098%,74.117647%);stroke-opacity:1;stroke-miterlimit:4;" d="M 0.0191422 1.584534 L 0.0191422 269.151709 C 26.724709 321.595499 64.008792 368.742985 109.641606 409.659525 C 151.540826 447.252895 204.796393 481.93849 271.326961 481.159622 C 338.635362 480.32883 389.868566 446.006706 430.523255 410.074922 C 475.481947 370.300721 512.921596 324.191726 539.990152 271.280615 L 539.990152 -0.0251268 Z M 0.0191422 1.584534 " transform="matrix(0.0753296,0,0,0.0752294,4.670433,82.115172)"/>
</g>
<path style=" stroke:none;fill-rule:nonzero;fill:rgb(80.784314%,27.45098%,29.803922%);fill-opacity:1;" d="M 4.671875 64.164062 L 4.671875 84.292969 C 6.683594 88.238281 9.492188 91.785156 12.929688 94.863281 C 16.085938 97.691406 20.097656 100.300781 25.109375 100.238281 C 30.179688 100.175781 34.039062 97.597656 37.101562 94.890625 C 40.488281 91.902344 43.308594 88.433594 45.347656 84.453125 L 45.347656 64.042969 Z M 4.671875 64.164062 "/>
<g clip-path="url(#clip2)" clip-rule="nonzero">
<path style="fill:none;stroke-width:50;stroke-linecap:butt;stroke-linejoin:miter;stroke:rgb(72.156863%,24.313725%,27.058824%);stroke-opacity:1;stroke-miterlimit:4;" d="M 0.0191422 1.604194 L 0.0191422 269.171369 C 26.724709 321.615158 64.008792 368.762644 109.641606 409.679185 C 151.540826 447.272555 204.796393 481.95815 271.326961 481.127357 C 338.635362 480.296565 389.868566 446.026365 430.523255 410.042657 C 475.481947 370.32038 512.921596 324.211385 539.990152 271.300275 L 539.990152 -0.0054673 Z M 0.0191422 1.604194 " transform="matrix(0.0753296,0,0,0.0752294,4.670433,64.04338)"/>
</g>
<path style=" stroke:none;fill-rule:nonzero;fill:rgb(94.901961%,92.941176%,83.529412%);fill-opacity:1;" d="M 4.671875 44.632812 L 4.671875 64.761719 C 6.683594 68.707031 9.492188 72.253906 12.929688 75.332031 C 16.085938 78.160156 20.097656 80.769531 25.109375 80.707031 C 30.179688 80.644531 34.039062 78.066406 37.101562 75.359375 C 40.488281 72.371094 43.308594 68.902344 45.347656 64.921875 L 45.347656 44.511719 Z M 4.671875 44.632812 "/>
<g clip-path="url(#clip3)" clip-rule="nonzero">
<path style="fill:none;stroke-width:50;stroke-linecap:butt;stroke-linejoin:miter;stroke:rgb(83.137255%,82.745098%,74.117647%);stroke-opacity:1;stroke-miterlimit:4;" d="M 0.0191422 1.608774 L 0.0191422 269.175949 C 26.724709 321.619738 64.008792 368.767224 109.641606 409.683765 C 151.540826 447.277135 204.796393 481.96273 271.326961 481.131937 C 338.635362 480.301145 389.868566 446.030946 430.523255 410.047237 C 475.481947 370.32496 512.921596 324.215965 539.990152 271.304855 L 539.990152 -0.000887203 Z M 0.0191422 1.608774 " transform="matrix(0.0753296,0,0,0.0752294,4.670433,44.511785)"/>
</g>
<path style=" stroke:none;fill-rule:nonzero;fill:rgb(80.784314%,27.45098%,29.803922%);fill-opacity:1;" d="M 4.671875 24.492188 L 4.671875 44.621094 C 6.683594 48.566406 9.492188 52.113281 12.929688 55.191406 C 16.085938 58.019531 20.097656 60.628906 25.109375 60.566406 C 30.179688 60.503906 34.039062 57.925781 37.101562 55.21875 C 40.488281 52.230469 43.308594 48.761719 45.347656 44.78125 L 45.347656 24.371094 Z M 4.671875 24.492188 "/>
<g clip-path="url(#clip4)" clip-rule="nonzero">
<path style="fill:none;stroke-width:50;stroke-linecap:butt;stroke-linejoin:miter;stroke:rgb(72.156863%,24.313725%,27.058824%);stroke-opacity:1;stroke-miterlimit:4;" d="M 0.0191422 1.605825 L 0.0191422 269.173 C 26.724709 321.616789 64.008792 368.764275 109.641606 409.680816 C 151.540826 447.274186 204.796393 481.959781 271.326961 481.128989 C 338.635362 480.298196 389.868566 446.027997 430.523255 410.044288 C 475.481947 370.322012 512.921596 324.213017 539.990152 271.301906 L 539.990152 -0.00383597 Z M 0.0191422 1.605825 " transform="matrix(0.0753296,0,0,0.0752294,4.670433,24.371382)"/>
</g>
<path style=" stroke:none;fill-rule:nonzero;fill:rgb(94.901961%,92.941176%,83.529412%);fill-opacity:1;" d="M 4.671875 4.789062 L 4.671875 24.917969 C 6.683594 28.863281 9.492188 32.410156 12.929688 35.488281 C 16.085938 38.316406 20.097656 40.925781 25.109375 40.867188 C 30.179688 40.804688 34.039062 38.222656 37.101562 35.519531 C 40.488281 32.527344 43.308594 29.058594 45.347656 25.078125 L 45.347656 4.667969 Z M 4.671875 4.789062 "/>
<g clip-path="url(#clip5)" clip-rule="nonzero">
<path style="fill:none;stroke-width:50;stroke-linecap:butt;stroke-linejoin:miter;stroke:rgb(83.137255%,82.745098%,74.117647%);stroke-opacity:1;stroke-miterlimit:4;" d="M 0.0191422 1.584425 L 0.0191422 269.1516 C 26.724709 321.59539 64.008792 368.742876 109.641606 409.659416 C 151.540826 447.252786 204.796393 481.938381 271.326961 481.159513 C 338.635362 480.328721 389.868566 446.006597 430.523255 410.074813 C 475.481947 370.300612 512.921596 324.191617 539.990152 271.280506 L 539.990152 -0.0252358 Z M 0.0191422 1.584425 " transform="matrix(0.0753296,0,0,0.0752294,4.670433,4.669867)"/>
</g>
</g>
</svg>
