<?xml version="1.0" encoding="UTF-8"?>
<svg xmlns="http://www.w3.org/2000/svg" xmlns:xlink="http://www.w3.org/1999/xlink" width="100px" height="100px" viewBox="0 0 100 100" version="1.1">
<defs>
<clipPath id="clip1">
  <path d="M 15.535156 15.535156 L 84.574219 15.535156 L 84.574219 84.574219 L 15.535156 84.574219 Z M 15.535156 15.535156 "/>
</clipPath>
<clipPath id="clip2">
  <path d="M 26.695312 27.390625 L 42.800781 27.390625 L 42.800781 72.71875 L 26.695312 72.71875 Z M 26.695312 27.390625 "/>
</clipPath>
<clipPath id="clip3">
  <path d="M 43.726562 32.566406 L 59.832031 32.566406 L 59.832031 67.542969 L 43.726562 67.542969 Z M 43.726562 32.566406 "/>
</clipPath>
<clipPath id="clip4">
  <path d="M 60.761719 37.023438 L 74.867188 37.023438 L 74.867188 63.082031 L 60.761719 63.082031 Z M 60.761719 37.023438 "/>
</clipPath>
</defs>
<g id="surface1">
<path style=" stroke:none;fill-rule:nonzero;fill:rgb(92.941176%,58.431373%,36.078431%);fill-opacity:1;" d="M 44.195312 17.691406 L 55.914062 17.691406 C 63.691406 17.691406 68.355469 17.691406 71.46875 18.988281 C 75.953125 20.621094 79.484375 24.15625 81.117188 28.640625 C 82.417969 31.75 82.417969 36.417969 82.417969 44.195312 L 82.417969 55.914062 C 82.417969 63.691406 82.417969 68.355469 81.117188 71.46875 C 79.484375 75.953125 75.953125 79.484375 71.46875 81.117188 C 68.355469 82.417969 63.691406 82.417969 55.914062 82.417969 L 44.195312 82.417969 C 36.417969 82.417969 31.75 82.417969 28.640625 81.117188 C 24.15625 79.484375 20.621094 75.953125 18.988281 71.46875 C 17.691406 68.355469 17.691406 63.691406 17.691406 55.914062 L 17.691406 44.195312 C 17.691406 36.417969 17.691406 31.75 18.988281 28.640625 C 20.621094 24.15625 24.15625 20.621094 28.640625 18.988281 C 31.75 17.691406 36.417969 17.691406 44.195312 17.691406 Z M 44.195312 17.691406 "/>
<g clip-path="url(#clip1)" clip-rule="nonzero">
<path style="fill:none;stroke-width:8;stroke-linecap:butt;stroke-linejoin:miter;stroke:rgb(85.490196%,53.72549%,33.72549%);stroke-opacity:1;stroke-miterlimit:4;" d="M 61.422639 -0.000168291 L 88.580843 -0.000168291 C 106.604838 -0.000168291 117.413803 -0.000168291 124.628832 3.00534 C 135.021372 6.789383 143.205044 14.982107 146.989087 25.374647 C 150.003647 32.580624 150.003647 43.398641 150.003647 61.422636 L 150.003647 88.58084 C 150.003647 106.604834 150.003647 117.413799 146.989087 124.628829 C 143.205044 135.021368 135.021372 143.20504 124.628832 146.989083 C 117.413803 150.003644 106.604838 150.003644 88.580843 150.003644 L 61.422639 150.003644 C 43.398645 150.003644 32.580627 150.003644 25.37465 146.989083 C 14.982111 143.20504 6.789386 135.021368 3.005343 124.628829 C -0.000164991 117.413799 -0.000164991 106.604834 -0.000164991 88.58084 L -0.000164991 61.422636 C -0.000164991 43.398641 -0.000164991 32.580624 3.005343 25.374647 C 6.789386 14.982107 14.982111 6.789383 25.37465 3.00534 C 32.580627 -0.000168291 43.398645 -0.000168291 61.422639 -0.000168291 Z M 61.422639 -0.000168291 " transform="matrix(0.431499,0,0,0.431499,17.691477,17.691479)"/>
</g>
<path style=" stroke:none;fill-rule:nonzero;fill:rgb(80.784314%,27.45098%,29.803922%);fill-opacity:1;" d="M 34.75 28.902344 C 36.492188 28.902344 37.761719 28.914062 38.484375 29.226562 C 39.636719 29.644531 40.546875 30.550781 40.964844 31.703125 C 41.289062 32.496094 41.289062 33.683594 41.289062 35.660156 L 41.289062 64.449219 C 41.289062 66.425781 41.289062 67.613281 40.964844 68.402344 C 40.546875 69.554688 39.636719 70.460938 38.484375 70.882812 C 37.761719 71.191406 36.492188 71.207031 34.75 71.207031 C 33.003906 71.207031 31.734375 71.191406 31.011719 70.882812 C 29.859375 70.460938 28.953125 69.554688 28.53125 68.402344 C 28.207031 67.613281 28.207031 66.425781 28.207031 64.449219 L 28.207031 35.660156 C 28.207031 33.683594 28.207031 32.496094 28.53125 31.703125 C 28.953125 30.550781 29.859375 29.644531 31.011719 29.226562 C 31.734375 28.914062 33.003906 28.902344 34.75 28.902344 Z M 34.75 28.902344 "/>
<g clip-path="url(#clip2)" clip-rule="nonzero">
<path style="fill:none;stroke-width:5;stroke-linecap:butt;stroke-linejoin:miter;stroke:rgb(72.156863%,25.098039%,26.666667%);stroke-opacity:1;stroke-miterlimit:4;" d="M 15.163007 0.00368002 C 19.200527 0.00368002 22.142665 0.0308382 23.817421 0.755057 C 26.487978 1.7237 28.597265 3.823934 29.565908 6.494491 C 30.317285 8.332196 30.317285 11.084227 30.317285 15.664911 L 30.317285 82.383565 C 30.317285 86.964249 30.317285 89.71628 29.565908 91.544932 C 28.597265 94.215489 26.487978 96.315723 23.817421 97.293419 C 22.142665 98.008585 19.200527 98.044796 15.163007 98.044796 C 11.116435 98.044796 8.174296 98.008585 6.49954 97.293419 C 3.828983 96.315723 1.728749 94.215489 0.751054 91.544932 C -0.000323444 89.71628 -0.000323444 86.964249 -0.000323444 82.383565 L -0.000323444 15.664911 C -0.000323444 11.084227 -0.000323444 8.332196 0.751054 6.494491 C 1.728749 3.823934 3.828983 1.7237 6.49954 0.755057 C 8.174296 0.0308382 11.116435 0.00368002 15.163007 0.00368002 Z M 15.163007 0.00368002 " transform="matrix(0.431499,0,0,0.431499,28.207171,28.900756)"/>
</g>
<path style=" stroke:none;fill-rule:nonzero;fill:rgb(94.901961%,92.941176%,83.529412%);fill-opacity:1;" d="M 51.78125 34.078125 C 53.304688 34.078125 54.699219 34.109375 55.371094 34.410156 C 56.589844 34.851562 57.546875 35.808594 57.988281 37.023438 C 58.320312 37.851562 58.320312 39.085938 58.320312 41.148438 L 58.320312 58.957031 C 58.320312 61.019531 58.320312 62.257812 57.988281 63.082031 C 57.546875 64.300781 56.589844 65.257812 55.371094 65.699219 C 54.699219 66 53.304688 66.03125 51.78125 66.03125 C 50.257812 66.03125 48.859375 66 48.1875 65.699219 C 46.972656 65.257812 46.011719 64.300781 45.570312 63.082031 C 45.238281 62.257812 45.238281 61.019531 45.238281 58.957031 L 45.238281 41.148438 C 45.238281 39.085938 45.238281 37.851562 45.570312 37.023438 C 46.011719 35.808594 46.972656 34.851562 48.1875 34.410156 C 48.859375 34.109375 50.257812 34.078125 51.78125 34.078125 Z M 51.78125 34.078125 "/>
<g clip-path="url(#clip3)" clip-rule="nonzero">
<path style="fill:none;stroke-width:5;stroke-linecap:butt;stroke-linejoin:miter;stroke:rgb(83.137255%,82.352941%,74.117647%);stroke-opacity:1;stroke-miterlimit:4;" d="M 15.16225 0.00335336 C 18.692816 0.00335336 21.924643 0.0757752 23.481713 0.772836 C 26.306166 1.795795 28.524086 4.013715 29.547045 6.829115 C 30.316528 8.748295 30.316528 11.608959 30.316528 16.388803 L 30.316528 57.66022 C 30.316528 62.440064 30.316528 65.309781 29.547045 67.219908 C 28.524086 70.044361 26.306166 72.262281 23.481713 73.28524 C 21.924643 73.982301 18.692816 74.054722 15.16225 74.054722 C 11.631683 74.054722 8.390804 73.982301 6.833734 73.28524 C 4.018334 72.262281 1.791361 70.044361 0.768402 67.219908 C -0.00108058 65.309781 -0.00108058 62.440064 -0.00108058 57.66022 L -0.00108058 16.388803 C -0.00108058 11.608959 -0.00108058 8.748295 0.768402 6.829115 C 1.791361 4.013715 4.018334 1.795795 6.833734 0.772836 C 8.390804 0.0757752 11.631683 0.00335336 15.16225 0.00335336 Z M 15.16225 0.00335336 " transform="matrix(0.431499,0,0,0.431499,45.238748,34.076678)"/>
</g>
<path style=" stroke:none;fill-rule:nonzero;fill:rgb(80.392157%,27.45098%,29.411765%);fill-opacity:1;" d="M 67.8125 38.535156 C 69.171875 38.535156 70.320312 38.554688 70.90625 38.8125 C 71.914062 39.179688 72.710938 39.976562 73.078125 40.984375 C 73.355469 41.671875 73.355469 42.703125 73.355469 44.425781 L 73.355469 55.683594 C 73.355469 57.402344 73.355469 58.433594 73.078125 59.121094 C 72.710938 60.132812 71.914062 60.925781 70.90625 61.292969 C 70.320312 61.550781 69.171875 61.574219 67.8125 61.574219 C 66.453125 61.574219 65.304688 61.550781 64.722656 61.292969 C 63.710938 60.925781 62.917969 60.132812 62.550781 59.121094 C 62.269531 58.433594 62.269531 57.402344 62.269531 55.683594 L 62.269531 44.425781 C 62.269531 42.703125 62.269531 41.671875 62.550781 40.984375 C 62.917969 39.976562 63.710938 39.179688 64.722656 38.8125 C 65.304688 38.554688 66.453125 38.535156 67.8125 38.535156 Z M 67.8125 38.535156 "/>
<g clip-path="url(#clip4)" clip-rule="nonzero">
<path style="fill:none;stroke-width:5;stroke-linecap:butt;stroke-linejoin:miter;stroke:rgb(72.156863%,24.313725%,26.666667%);stroke-opacity:1;stroke-miterlimit:4;" d="M 12.843973 0.000523542 C 15.994324 0.000523542 18.655828 0.0457872 20.013738 0.643268 C 22.349344 1.494225 24.196102 3.340983 25.047059 5.676588 C 25.689803 7.269869 25.689803 9.659791 25.689803 13.652047 L 25.689803 39.742028 C 25.689803 43.725232 25.689803 46.115154 25.047059 47.708435 C 24.196102 50.053093 22.349344 51.890798 20.013738 52.741755 C 18.655828 53.339236 15.994324 53.393552 12.843973 53.393552 C 9.693621 53.393552 7.032117 53.339236 5.68326 52.741755 C 3.338601 51.890798 1.500896 50.053093 0.649939 47.708435 C -0.00185772 46.115154 -0.00185772 43.725232 -0.00185772 39.742028 L -0.00185772 13.652047 C -0.00185772 9.659791 -0.00185772 7.269869 0.649939 5.676588 C 1.500896 3.340983 3.338601 1.494225 5.68326 0.643268 C 7.032117 0.0457872 9.693621 0.000523542 12.843973 0.000523542 Z M 12.843973 0.000523542 " transform="matrix(0.431499,0,0,0.431499,62.270333,38.53493)"/>
</g>
</g>
</svg>
